<?xml version="1.0" encoding="UTF-8" standalone="no"?>
<svg
   width="300"
   height="300"
   viewBox="0 0 300 300"
   version="1.1"
   id="svg6"
   sodipodi:docname="laravel.svg"
   inkscape:version="1.1.1 (3bf5ae0d25, 2021-09-20, custom)"
   xmlns:inkscape="http://www.inkscape.org/namespaces/inkscape"
   xmlns:sodipodi="http://sodipodi.sourceforge.net/DTD/sodipodi-0.dtd"
   xmlns="http://www.w3.org/2000/svg"
   xmlns:svg="http://www.w3.org/2000/svg"
   xmlns:rdf="http://www.w3.org/1999/02/22-rdf-syntax-ns#"
   xmlns:cc="http://creativecommons.org/ns#"
   xmlns:dc="http://purl.org/dc/elements/1.1/">
  <defs
     id="defs10" />
  <sodipodi:namedview
     id="namedview8"
     pagecolor="#505050"
     bordercolor="#eeeeee"
     borderopacity="1"
     inkscape:pageshadow="0"
     inkscape:pageopacity="0"
     inkscape:pagecheckerboard="0"
     showgrid="false"
     inkscape:zoom="1"
     inkscape:cx="25.5"
     inkscape:cy="26"
     inkscape:window-width="2560"
     inkscape:window-height="1371"
     inkscape:window-x="0"
     inkscape:window-y="32"
     inkscape:window-maximized="1"
     inkscape:current-layer="svg6" />
  <title
     id="title2">Logomark</title>
  <path
     d="m 295.54425,67.867856 a 4.7479859,4.7479859 0 0 1 0.16433,1.226612 v 64.394192 a 4.6951653,4.6951653 0 0 1 -2.35932,4.07306 l -54.04722,31.11721 v 61.67686 c 0,1.67852 -0.89208,3.22793 -2.34758,4.07306 L 124.1355,299.37472 c -0.25823,0.14672 -0.53994,0.24063 -0.82165,0.3404 -0.10564,0.0352 -0.20541,0.0998 -0.31692,0.12912 a 4.7245101,4.7245101 0 0 1 -2.40628,0 c -0.12911,-0.0352 -0.24649,-0.10564 -0.36974,-0.1526 -0.25823,-0.0939 -0.52821,-0.17606 -0.7747,-0.31692 L 6.6507356,234.42885 A 4.7010343,4.7010343 0 0 1 4.291415,230.35579 V 37.173213 c 0,-0.422565 0.05869,-0.833392 0.1643308,-1.232481 0.035214,-0.134986 0.1173791,-0.258234 0.1643308,-0.39322 0.088034,-0.246496 0.1701997,-0.498861 0.2993168,-0.72775 0.088034,-0.152593 0.2171513,-0.275841 0.3227926,-0.416696 0.134986,-0.187807 0.2582341,-0.381482 0.4166959,-0.545813 0.134986,-0.134986 0.3110547,-0.234758 0.4636476,-0.352138 0.1701997,-0.140855 0.3227926,-0.293447 0.5164681,-0.404958 h 0.00587 L 63.04554,0.62722047 a 4.7069032,4.7069032 0 0 1 4.695165,0 L 124.14137,33.100157 h 0.0117 c 0.18781,0.11738 0.34627,0.264103 0.51647,0.399089 0.15259,0.11738 0.32279,0.223021 0.45778,0.352138 0.16433,0.1702 0.28171,0.363875 0.42256,0.551682 0.0998,0.140855 0.23476,0.264103 0.31693,0.416696 0.13498,0.234758 0.21128,0.481254 0.30518,0.72775 0.047,0.134986 0.12912,0.258234 0.16433,0.399089 a 4.7479859,4.7479859 0 0 1 0.16433,1.226612 V 157.83309 l 46.99861,-27.06176 V 69.088599 c 0,-0.410827 0.0587,-0.827523 0.16433,-1.220743 0.0411,-0.140855 0.11738,-0.264103 0.16433,-0.399089 0.0939,-0.246496 0.17607,-0.498861 0.30519,-0.72775 0.088,-0.152593 0.21715,-0.275841 0.31692,-0.416696 0.14085,-0.187807 0.25823,-0.381482 0.42256,-0.545813 0.13499,-0.134986 0.30519,-0.234758 0.45778,-0.352138 0.17607,-0.140855 0.32866,-0.293447 0.51647,-0.404958 h 0.006 l 56.40654,-32.472937 a 4.7010343,4.7010343 0 0 1 4.69517,0 l 56.40067,32.472937 c 0.19954,0.11738 0.35214,0.264103 0.52821,0.399089 0.14672,0.11738 0.31692,0.223021 0.45191,0.352138 0.16433,0.1702 0.28171,0.363875 0.42256,0.551682 0.10564,0.140855 0.23476,0.264103 0.31692,0.416696 0.13499,0.228889 0.21129,0.481254 0.30519,0.72775 0.0528,0.134986 0.12912,0.258234 0.16433,0.399089 z m -9.23774,62.903474 V 77.222973 l -19.7373,11.3623 -27.26717,15.699457 v 53.54836 l 47.01034,-27.06176 z m -56.40067,96.86713 v -53.58357 l -26.82113,15.31798 -76.58989,43.71199 v 54.0883 z M 13.693483,45.301718 V 227.63846 l 103.399277,59.52883 v -54.07657 l -54.017875,-30.57139 -0.01761,-0.0117 -0.02348,-0.0117 c -0.181938,-0.10564 -0.334531,-0.25823 -0.50473,-0.38735 -0.146724,-0.11738 -0.316924,-0.21128 -0.446041,-0.3404 l -0.01174,-0.0176 c -0.152593,-0.14673 -0.258234,-0.32867 -0.387351,-0.493 -0.117379,-0.15846 -0.258234,-0.29344 -0.352138,-0.45778 l -0.0059,-0.0176 c -0.105641,-0.17607 -0.170199,-0.38735 -0.246496,-0.5869 -0.0763,-0.17607 -0.176068,-0.3404 -0.22302,-0.5282 v -0.006 c -0.05869,-0.22302 -0.07043,-0.45778 -0.0939,-0.68667 -0.02348,-0.17607 -0.07043,-0.35214 -0.07043,-0.52821 V 198.43454 72.363477 L 33.430785,56.658149 13.693483,45.307587 Z M 65.398991,10.123192 18.406256,37.173213 65.387253,64.223234 112.37412,37.167344 65.387253,10.123192 Z M 89.837327,178.93786 117.09863,163.24427 V 45.301718 L 97.361329,56.664018 70.094157,72.363477 V 190.30603 Z M 234.60687,42.044447 l -46.98686,27.050021 46.98686,27.050021 46.981,-27.05589 z m -4.70103,62.240283 -27.26717,-15.699457 -19.7373,-11.3623 v 53.548357 l 27.2613,15.69359 19.74317,11.36817 z m -108.11792,120.67162 68.91916,-39.34548 34.45077,-19.66101 -46.95165,-27.03241 -54.05896,31.12307 -49.269884,28.36467 z"
     fill="#ff2d20"
     fill-rule="evenodd"
     id="path4"
     style="stroke-width:5.86896" />
  <metadata
     id="metadata827">
    <rdf:RDF>
      <cc:Work
         rdf:about="">
        <dc:title>Logomark</dc:title>
      </cc:Work>
    </rdf:RDF>
  </metadata>
</svg>
