<?xml version="1.0" encoding="UTF-8" standalone="no"?>
<svg
   enable-background="new 0 0 24 24"
   height="24"
   viewBox="0 0 24 24"
   width="24"
   version="1.1"
   id="svg16"
   sodipodi:docname="moon.svg"
   inkscape:version="1.1.1 (3bf5ae0d25, 2021-09-20, custom)"
   xmlns:inkscape="http://www.inkscape.org/namespaces/inkscape"
   xmlns:sodipodi="http://sodipodi.sourceforge.net/DTD/sodipodi-0.dtd"
   xmlns="http://www.w3.org/2000/svg"
   xmlns:svg="http://www.w3.org/2000/svg">
  <defs
     id="defs20" />
  <sodipodi:namedview
     id="namedview18"
     pagecolor="#505050"
     bordercolor="#eeeeee"
     borderopacity="1"
     inkscape:pageshadow="0"
     inkscape:pageopacity="0"
     inkscape:pagecheckerboard="0"
     showgrid="false"
     inkscape:zoom="29.958333"
     inkscape:cx="12"
     inkscape:cy="11.98331"
     inkscape:window-width="2560"
     inkscape:window-height="1371"
     inkscape:window-x="0"
     inkscape:window-y="32"
     inkscape:window-maximized="1"
     inkscape:current-layer="svg16" />
  <g
     id="g4">
    <rect
       fill="none"
       height="24"
       width="24"
       id="rect2" />
  </g>
  <g
     id="g14"
     style="fill:#666666;fill-opacity:1">
    <g
       id="g12"
       style="fill:#666666;fill-opacity:1">
      <g
         id="g8"
         style="fill:#666666;fill-opacity:1">
        <path
           d="M11.1,12.08C8.77,7.57,10.6,3.6,11.63,2.01C6.27,2.2,1.98,6.59,1.98,12c0,0.14,0.02,0.28,0.02,0.42 C2.62,12.15,3.29,12,4,12c1.66,0,3.18,0.83,4.1,2.15C9.77,14.63,11,16.17,11,18c0,1.52-0.87,2.83-2.12,3.51 c0.98,0.32,2.03,0.5,3.11,0.5c3.5,0,6.58-1.8,8.37-4.52C18,17.72,13.38,16.52,11.1,12.08z"
           id="path6"
           style="fill:#666666;fill-opacity:1" />
      </g>
      <path
         d="M7,16l-0.18,0C6.4,14.84,5.3,14,4,14c-1.66,0-3,1.34-3,3s1.34,3,3,3c0.62,0,2.49,0,3,0c1.1,0,2-0.9,2-2 C9,16.9,8.1,16,7,16z"
         id="path10"
         style="fill:#666666;fill-opacity:1" />
    </g>
  </g>
</svg>
