<?xml version="1.0" encoding="UTF-8" standalone="no"?>
<!-- Created with Inkscape (http://www.inkscape.org/) -->

<svg
   version="1.1"
   width="256"
   height="256"
   id="svg2"
   xml:space="preserve"
   inkscape:version="1.3.2 (091e20ef0f, 2023-11-25, custom)"
   sodipodi:docname="ddg.svg"
   xmlns:inkscape="http://www.inkscape.org/namespaces/inkscape"
   xmlns:sodipodi="http://sodipodi.sourceforge.net/DTD/sodipodi-0.dtd"
   xmlns:xlink="http://www.w3.org/1999/xlink"
   xmlns="http://www.w3.org/2000/svg"
   xmlns:svg="http://www.w3.org/2000/svg"
   xmlns:rdf="http://www.w3.org/1999/02/22-rdf-syntax-ns#"
   xmlns:cc="http://creativecommons.org/ns#"
   xmlns:dc="http://purl.org/dc/elements/1.1/"><sodipodi:namedview
     pagecolor="#ffffff"
     bordercolor="#666666"
     borderopacity="1"
     objecttolerance="10"
     gridtolerance="10"
     guidetolerance="10"
     inkscape:pageopacity="0"
     inkscape:pageshadow="2"
     inkscape:window-width="2560"
     inkscape:window-height="1371"
     id="namedview70"
     showgrid="false"
     inkscape:zoom="1"
     inkscape:cx="35"
     inkscape:cy="40.5"
     inkscape:window-x="0"
     inkscape:window-y="0"
     inkscape:window-maximized="1"
     inkscape:current-layer="svg2"
     inkscape:showpageshadow="2"
     inkscape:pagecheckerboard="0"
     inkscape:deskcolor="#d1d1d1" /><metadata
     id="metadata8"><rdf:RDF><cc:Work
         rdf:about=""><dc:format>image/svg+xml</dc:format><dc:type
           rdf:resource="http://purl.org/dc/dcmitype/StillImage" /></cc:Work></rdf:RDF></metadata><defs
     id="defs6"><clipPath
       id="clipPath26"><path
         d="m 200.978,431.179 c 0,83.87 67.976,151.846 151.846,151.846 83.864,0 151.867,-67.976 151.867,-151.846 0,-83.857 -68.003,-151.847 -151.867,-151.847 -83.87,0 -151.846,67.99 -151.846,151.847"
         id="path28"
         inkscape:connector-curvature="0" /></clipPath><clipPath
       id="clipPath54"><path
         d="m 347.15,332.338 c 0,0 -36.141,19.277 -36.743,11.457 -0.608,-7.834 0,-39.758 4.211,-42.178 4.225,-2.406 34.344,15.661 34.344,15.661 z"
         id="path56"
         inkscape:connector-curvature="0" /></clipPath><linearGradient
       x1="0"
       y1="0"
       x2="1"
       y2="0"
       id="linearGradient62"
       gradientUnits="userSpaceOnUse"
       gradientTransform="matrix(38.754883,0,0,-38.754883,310.20703,323.5293)"
       spreadMethod="pad"><stop
         id="stop64"
         style="stop-color:#b4d66f;stop-opacity:1"
         offset="0" /><stop
         id="stop66"
         style="stop-color:#0db14b;stop-opacity:1"
         offset="0.69101101" /><stop
         id="stop68"
         style="stop-color:#0db14b;stop-opacity:1"
         offset="0.69101101" /><stop
         id="stop70"
         style="stop-color:#0db14b;stop-opacity:1"
         offset="1" /></linearGradient><clipPath
       id="clipPath78"><path
         d="m 361.007,333.555 c 0,0 24.705,18.675 30.126,17.472 5.421,-1.216 6.624,-39.764 1.798,-41.589 -4.82,-1.792 -33.086,9.789 -33.086,9.789 z"
         id="path80"
         inkscape:connector-curvature="0" /></clipPath><linearGradient
       x1="0"
       y1="0"
       x2="1"
       y2="0"
       id="linearGradient86"
       gradientUnits="userSpaceOnUse"
       gradientTransform="matrix(36.111328,0,0,-36.111328,359.84473,330.16602)"
       spreadMethod="pad"><stop
         id="stop88"
         style="stop-color:#b4d66f;stop-opacity:1"
         offset="0" /><stop
         id="stop90"
         style="stop-color:#0db14b;stop-opacity:1"
         offset="0.69101101" /><stop
         id="stop92"
         style="stop-color:#0db14b;stop-opacity:1"
         offset="0.69101101" /><stop
         id="stop94"
         style="stop-color:#0db14b;stop-opacity:1"
         offset="1" /></linearGradient><clipPath
       id="clipPath102"><path
         d="m 339.925,332.338 c 0,-12.64 -1.805,-18.074 3.616,-19.271 5.421,-1.21 15.654,0 19.277,2.407 3.61,2.413 0.595,18.669 -0.608,21.697 -1.203,3.001 -22.285,0.588 -22.285,-4.833"
         id="path104"
         inkscape:connector-curvature="0" /></clipPath><linearGradient
       x1="0"
       y1="0"
       x2="1"
       y2="0"
       id="linearGradient110"
       gradientUnits="userSpaceOnUse"
       gradientTransform="matrix(24.898437,0,0,-24.898437,339.63672,325.53418)"
       spreadMethod="pad"><stop
         id="stop112"
         style="stop-color:#73c063;stop-opacity:1"
         offset="0" /><stop
         id="stop114"
         style="stop-color:#0db14b;stop-opacity:1"
         offset="1" /></linearGradient><linearGradient
       inkscape:collect="always"
       xlink:href="#linearGradient62"
       id="linearGradient3047"
       gradientUnits="userSpaceOnUse"
       gradientTransform="matrix(8.422689,0,0,8.4227134,63.872185,60.34105)"
       spreadMethod="pad"
       x1="0"
       y1="0"
       x2="1"
       y2="0" /><linearGradient
       inkscape:collect="always"
       xlink:href="#linearGradient86"
       id="linearGradient3049"
       gradientUnits="userSpaceOnUse"
       gradientTransform="matrix(7.8481591,0,0,7.8481818,74.660062,58.898672)"
       spreadMethod="pad"
       x1="0"
       y1="0"
       x2="1"
       y2="0" /><linearGradient
       inkscape:collect="always"
       xlink:href="#linearGradient110"
       id="linearGradient3051"
       gradientUnits="userSpaceOnUse"
       gradientTransform="matrix(5.4112353,0,0,5.411251,70.268208,59.905323)"
       spreadMethod="pad"
       x1="0"
       y1="0"
       x2="1"
       y2="0" /><clipPath
       clipPathUnits="userSpaceOnUse"
       id="clipPath1"><g
         id="g2"><path
           d="M -3.545832,-25.825101 H 152.93345 V 130.65463 H -3.545832 Z"
           id="path1"
           inkscape:connector-curvature="0"
           style="stroke-width:0.217333" /></g></clipPath><clipPath
       clipPathUnits="userSpaceOnUse"
       id="clipPath2"><g
         id="g3"><path
           d="M -3.545832,-25.825101 H 152.93345 V 130.65463 H -3.545832 Z"
           id="path2"
           inkscape:connector-curvature="0"
           style="stroke-width:0.217333" /></g></clipPath><clipPath
       clipPathUnits="userSpaceOnUse"
       id="clipPath3"><g
         id="g4"><path
           d="M -3.545832,-25.825101 H 152.93345 V 130.65463 H -3.545832 Z"
           id="path3"
           inkscape:connector-curvature="0"
           style="stroke-width:0.217333" /></g></clipPath><clipPath
       clipPathUnits="userSpaceOnUse"
       id="clipPath4"><g
         id="g5"><path
           d="M -3.545832,-25.825101 H 152.93345 V 130.65463 H -3.545832 Z"
           id="path4"
           inkscape:connector-curvature="0"
           style="stroke-width:0.217333" /></g></clipPath><clipPath
       clipPathUnits="userSpaceOnUse"
       id="clipPath5"><g
         id="g6"><path
           d="M -3.545832,-25.825101 H 152.93345 V 130.65463 H -3.545832 Z"
           id="path5"
           inkscape:connector-curvature="0"
           style="stroke-width:0.217333" /></g></clipPath><clipPath
       clipPathUnits="userSpaceOnUse"
       id="clipPath6"><g
         id="g7"><path
           d="M -3.545832,-25.825101 H 152.93345 V 130.65463 H -3.545832 Z"
           id="path6"
           inkscape:connector-curvature="0"
           style="stroke-width:0.217333" /></g></clipPath><clipPath
       clipPathUnits="userSpaceOnUse"
       id="clipPath7"><g
         id="g8"><path
           d="M -3.545832,-25.825101 H 152.93345 V 130.65463 H -3.545832 Z"
           id="path7"
           inkscape:connector-curvature="0"
           style="stroke-width:0.217333" /></g></clipPath><clipPath
       clipPathUnits="userSpaceOnUse"
       id="clipPath8"><g
         id="g9"><path
           d="M -3.545832,-25.825101 H 152.93345 V 130.65463 H -3.545832 Z"
           id="path8"
           inkscape:connector-curvature="0"
           style="stroke-width:0.217333" /></g></clipPath><clipPath
       clipPathUnits="userSpaceOnUse"
       id="clipPath12"><g
         id="g13"><path
           d="M -3.545832,-25.825101 H 152.93345 V 130.65463 H -3.545832 Z"
           id="path12"
           inkscape:connector-curvature="0"
           style="stroke-width:0.217333" /></g></clipPath><clipPath
       clipPathUnits="userSpaceOnUse"
       id="clipPath13"><g
         id="g14"><path
           d="M -3.545832,-25.825101 H 152.93345 V 130.65463 H -3.545832 Z"
           id="path13"
           inkscape:connector-curvature="0"
           style="stroke-width:0.217333" /></g></clipPath><clipPath
       clipPathUnits="userSpaceOnUse"
       id="clipPath15"><g
         id="g16"><path
           d="M -3.545832,-25.825101 H 152.93345 V 130.65463 H -3.545832 Z"
           id="path15"
           inkscape:connector-curvature="0"
           style="stroke-width:0.217333" /></g></clipPath><clipPath
       clipPathUnits="userSpaceOnUse"
       id="clipPath39"><g
         id="g42"><g
           id="g41"><g
             id="g40"><path
               d="M -3.545832,-25.825101 H 152.93345 V 130.65463 H -3.545832 Z"
               id="path39"
               inkscape:connector-curvature="0"
               style="stroke-width:0.217333" /></g></g></g></clipPath><clipPath
       clipPathUnits="userSpaceOnUse"
       id="clipPath42"><g
         id="g45"><g
           id="g44"><g
             id="g43"><path
               d="M -3.545832,-25.825101 H 152.93345 V 130.65463 H -3.545832 Z"
               id="path43"
               inkscape:connector-curvature="0"
               style="stroke-width:0.217333" /></g></g></g></clipPath><clipPath
       clipPathUnits="userSpaceOnUse"
       id="clipPath45"><g
         id="g48"><g
           id="g47"><g
             id="g46"><path
               d="M -3.545832,-25.825101 H 152.93345 V 130.65463 H -3.545832 Z"
               id="path45"
               inkscape:connector-curvature="0"
               style="stroke-width:0.217333" /></g></g></g></clipPath><clipPath
       clipPathUnits="userSpaceOnUse"
       id="clipPath48"><g
         id="g51"><g
           id="g50"><g
             id="g49"><path
               d="M -3.545832,-25.825101 H 152.93345 V 130.65463 H -3.545832 Z"
               id="path49"
               inkscape:connector-curvature="0"
               style="stroke-width:0.217333" /></g></g></g></clipPath><clipPath
       clipPathUnits="userSpaceOnUse"
       id="clipPath51"><g
         id="g54"><g
           id="g53"><g
             id="g52"><path
               d="M -3.545832,-25.825101 H 152.93345 V 130.65463 H -3.545832 Z"
               id="path51"
               inkscape:connector-curvature="0"
               style="stroke-width:0.217333" /></g></g></g></clipPath><clipPath
       clipPathUnits="userSpaceOnUse"
       id="clipPath55"><g
         id="g57"><g
           id="g56"><g
             id="g55"><path
               d="M -3.545832,-25.825101 H 152.93345 V 130.65463 H -3.545832 Z"
               id="path55"
               inkscape:connector-curvature="0"
               style="stroke-width:0.217333" /></g></g></g></clipPath><clipPath
       clipPathUnits="userSpaceOnUse"
       id="clipPath57"><g
         id="g62"><g
           id="g61"><g
             id="g59"><path
               d="M -3.545832,-25.825101 H 152.93345 V 130.65463 H -3.545832 Z"
               id="path57"
               inkscape:connector-curvature="0"
               style="stroke-width:0.217333" /></g></g></g></clipPath><clipPath
       clipPathUnits="userSpaceOnUse"
       id="clipPath62"><g
         id="g65"><g
           id="g64"><g
             id="g63"><path
               d="M -3.545832,-25.825101 H 152.93345 V 130.65463 H -3.545832 Z"
               id="path62"
               inkscape:connector-curvature="0"
               style="stroke-width:0.217333" /></g></g></g></clipPath><clipPath
       clipPathUnits="userSpaceOnUse"
       id="clipPath86"><g
         id="g91"><g
           id="g90"><g
             id="g89"><g
               id="g88"><g
                 id="g87"><path
                   d="M -3.545832,-25.825101 H 152.93345 V 130.65463 H -3.545832 Z"
                   id="path86"
                   inkscape:connector-curvature="0"
                   style="stroke-width:0.217333" /></g></g></g></g></g></clipPath><clipPath
       clipPathUnits="userSpaceOnUse"
       id="clipPath92"><g
         id="g97"><g
           id="g96"><g
             id="g95"><g
               id="g94"><g
                 id="g93"><path
                   d="M -3.545832,-25.825101 H 152.93345 V 130.65463 H -3.545832 Z"
                   id="path92"
                   inkscape:connector-curvature="0"
                   style="stroke-width:0.217333" /></g></g></g></g></g></clipPath><clipPath
       clipPathUnits="userSpaceOnUse"
       id="clipPath98"><g
         id="g103"><g
           id="g102"><g
             id="g101"><g
               id="g100"><g
                 id="g99"><path
                   d="M -3.545832,-25.825101 H 152.93345 V 130.65463 H -3.545832 Z"
                   id="path98"
                   inkscape:connector-curvature="0"
                   style="stroke-width:0.217333" /></g></g></g></g></g></clipPath></defs><g
     id="g104"
     transform="matrix(3.688774,0,0,3.6915177,-142.32841,-9.6808467)"><path
       d="m 40.133185,36.945222 c 0,-18.227716 14.773382,-33.001141 33.001045,-33.001141 18.226359,0 33.00561,14.773425 33.00561,33.001141 0,18.22489 -14.779251,33.001358 -33.00561,33.001358 -18.227663,0 -33.001045,-14.776468 -33.001045,-33.001358"
       id="path20"
       style="fill:#ec2027;fill-opacity:1;fill-rule:nonzero;stroke:none;stroke-width:0.217333"
       inkscape:connector-curvature="0"
       clip-path="url(#clipPath15)" /><path
       id="path30"
       clip-path="url(#clipPath62)"
       style="fill:#cccdce;fill-opacity:1;fill-rule:nonzero;stroke:none;stroke-width:0.217333"
       d="m 59.285156,15.910156 c -0.713111,0.01805 -1.004709,0.25933 -1.457031,0.333985 0.561586,0.04912 3.230574,1.367942 3.751953,1.445312 -0.521379,0.350558 -2.048489,-0.0167 -3.021484,0.419922 -0.491823,0.221463 -0.858294,1.06669 -0.855469,1.464844 2.787284,-0.280794 7.134044,-0.0077 9.701172,1.134765 -2.044226,0.231894 -5.151037,0.489201 -6.488281,1.19336 -3.885029,2.047275 -5.598717,6.827535 -4.578125,12.554687 1.025155,5.724328 5.524812,26.583984 6.957031,33.53711 0.0569,0.27634 0.09026,0.542017 0.128906,0.810547 3.109247,0.970596 6.414902,1.496093 9.84375,1.496093 2.033719,0 4.02103,-0.194641 5.953125,-0.546875 -1.574051,-3.088434 -3.138856,-6.041468 -4.064453,-7.892578 -2.247866,-4.49857 -4.500196,-10.840134 -3.476562,-14.93164 0.18408,-0.742844 -1.949035,-6.412825 -1.333985,-6.8125 4.771961,-3.115465 6.031271,0.337985 7.943359,-1.058594 0.986472,-0.72198 2.317421,0.594851 2.66211,-0.59961 1.225754,-4.293625 -1.704631,-11.775582 -4.97461,-15.046875 -1.066665,-1.066669 -2.704974,-1.735371 -4.554687,-2.091797 -0.708503,-0.971695 -1.854179,-1.9039 -3.476563,-2.765624 -1.81255,-0.962568 -5.743756,-2.235398 -7.785156,-2.574219 -0.352839,-0.05792 -0.637296,-0.07633 -0.875,-0.07031 z" /><path
       id="path32"
       clip-path="url(#clipPath57)"
       style="fill:#ffffff;fill-opacity:1;fill-rule:nonzero;stroke:none;stroke-width:0.217333"
       d="m 61.152344,15.775391 c -0.896916,0.0035 -1.792227,0.08288 -2.669922,0.242187 0.561585,0.05216 1.84668,1.213646 2.365234,1.291016 -0.784351,0.530292 -2.866772,0.460942 -2.853515,1.640625 2.788588,-0.277969 5.843893,0.16369 8.414062,1.304687 -2.044226,0.231677 -3.945958,0.737248 -5.283203,1.441406 -3.886333,2.044449 -4.909049,6.134608 -3.886719,11.863282 1.022113,5.72737 5.52395,26.585936 6.953125,33.539062 0.142668,0.693337 0.211869,1.354332 0.244141,1.998047 2.812397,0.779755 5.771454,1.205078 8.832031,1.205078 2.471013,0 4.875415,-0.281875 7.191406,-0.796875 -1.693294,-3.348892 -3.410221,-6.552156 -4.40625,-8.542968 -2.249386,-4.498571 -4.496722,-10.839272 -3.474609,-14.927735 0.187123,-0.742843 0.190286,-3.783478 0.806641,-4.1875 4.772178,-3.115465 4.433615,-0.10342 6.345703,-1.5 0.98647,-0.719154 1.775974,-1.589174 2.11914,-2.785156 1.228579,-4.29493 -1.70354,-11.775797 -4.976562,-15.048828 -1.065145,-1.065147 -2.702589,-1.73429 -4.550781,-2.087891 -0.713068,-0.974737 -1.858085,-1.908024 -3.480469,-2.769531 -2.293071,-1.219074 -4.998705,-1.889389 -7.689453,-1.878906 z" /><path
       d="m 61.745147,33.841707 c 0,-1.185551 0.96126,-2.148336 2.149851,-2.148336 1.185548,0 2.145287,0.962785 2.145287,2.148336 0,1.188594 -0.959739,2.148336 -2.145287,2.148336 -1.188591,0 -2.149851,-0.959742 -2.149851,-2.148336"
       id="path34"
       style="fill:#0071bc;fill-opacity:1;fill-rule:nonzero;stroke:none;stroke-width:0.217333"
       inkscape:connector-curvature="0"
       clip-path="url(#clipPath55)" /><path
       d="m 64.290108,33.125595 c 0,-0.309048 0.249498,-0.558546 0.557023,-0.558546 0.307525,0 0.558761,0.249498 0.558761,0.558546 0,0.307526 -0.251236,0.558546 -0.558761,0.558546 -0.307525,0 -0.557023,-0.25102 -0.557023,-0.558546"
       id="path36"
       style="fill:#ffffff;fill-opacity:1;fill-rule:nonzero;stroke:none;stroke-width:0.217333"
       inkscape:connector-curvature="0"
       clip-path="url(#clipPath51)" /><path
       d="m 76.405734,32.567049 c 0,-1.016249 0.827601,-1.843853 1.845151,-1.843853 1.020593,0 1.845152,0.827604 1.845152,1.843853 0,1.022117 -0.824559,1.8482 -1.845152,1.8482 -1.01755,0 -1.845151,-0.826083 -1.845151,-1.8482"
       id="path38"
       style="fill:#0071bc;fill-opacity:1;fill-rule:nonzero;stroke:none;stroke-width:0.217333"
       inkscape:connector-curvature="0"
       clip-path="url(#clipPath48)" /><path
       d="m 78.592531,31.954822 c 0,-0.264277 0.215594,-0.47835 0.478566,-0.47835 0.265798,0 0.476827,0.214073 0.476827,0.47835 0,0.264494 -0.211029,0.477046 -0.476827,0.477046 -0.262972,0 -0.478566,-0.212552 -0.478566,-0.477046"
       id="path40"
       style="fill:#ffffff;fill-opacity:1;fill-rule:nonzero;stroke:none;stroke-width:0.217333"
       inkscape:connector-curvature="0"
       clip-path="url(#clipPath45)" /><path
       d="m 64.503963,27.616639 c 0,0 -1.619343,-0.730891 -3.19109,0.257105 -1.571965,0.987996 -1.515459,1.99968 -1.515459,1.99968 0,0 -0.834991,-1.862978 1.393535,-2.773603 2.228526,-0.915189 3.313014,0.516818 3.313014,0.516818"
       id="path42"
       style="fill:#188dcd;fill-opacity:1;fill-rule:nonzero;stroke:none;stroke-width:0.217333"
       inkscape:connector-curvature="0"
       clip-path="url(#clipPath42)" /><path
       d="m 79.362105,27.471243 c 0,0 -1.163162,-0.665691 -2.064874,-0.655259 -1.855801,0.02521 -2.362403,0.845426 -2.362403,0.845426 0,0 0.31209,-1.953824 2.686228,-1.563059 1.283565,0.213856 1.741049,1.372892 1.741049,1.372892"
       id="path44"
       style="fill:#188dcd;fill-opacity:1;fill-rule:nonzero;stroke:none;stroke-width:0.217333"
       inkscape:connector-curvature="0"
       clip-path="url(#clipPath39)" /><path
       d="m 41.049023,37.199284 c 0,-17.863683 14.47868,-32.3400139 32.34079,-32.3400139 17.862109,0 32.344487,14.4763309 32.344487,32.3400139 0,17.860857 -14.482378,32.343274 -32.344487,32.343274 -17.86211,0 -32.34079,-14.482417 -32.34079,-32.343274 z"
       id="path46"
       style="fill:none;stroke:#ffffff;stroke-width:4.50052;stroke-linecap:butt;stroke-linejoin:miter;stroke-miterlimit:4;stroke-dasharray:none;stroke-opacity:1"
       inkscape:connector-curvature="0"
       clip-path="url(#clipPath13)" /><path
       d="m 70.042678,42.087102 c 0.216897,-1.316168 3.619018,-3.806152 6.027277,-3.957633 2.412824,-0.151698 3.164576,-0.117577 5.177508,-0.598752 2.01315,-0.481393 7.202611,-1.773872 8.639178,-2.438042 1.438088,-0.662648 7.527957,0.329695 3.234339,2.723182 -1.858626,1.039939 -6.865311,2.948991 -10.441297,4.015879 -3.574465,1.069713 -5.740616,-1.022117 -6.929206,0.736759 -0.94344,1.396581 -0.191688,3.310198 4.076719,3.708352 5.767348,0.533335 11.297152,-2.596912 11.906117,-0.934532 0.612226,1.66238 -4.957567,3.739431 -8.34643,3.80637 -3.387342,0.0639 -10.21701,-2.238964 -11.237603,-2.952034 -1.023635,-0.713287 -2.39196,-2.374145 -2.106602,-4.109549"
       id="path48"
       style="fill:#fdd204;fill-opacity:1;fill-rule:nonzero;stroke:none;stroke-width:0.217333"
       inkscape:connector-curvature="0"
       clip-path="url(#clipPath12)" /><path
       d="m 71.901086,58.426629 c 0,0 -7.854607,-4.189528 -7.985441,-2.489984 -0.132138,1.702586 0,8.640724 0.915186,9.16667 0.918229,0.522903 7.464062,-3.403652 7.464062,-3.403652 z"
       id="path72"
       style="fill:url(#linearGradient3047);stroke:none;stroke-width:0.217333"
       inkscape:connector-curvature="0"
       clip-path="url(#clipPath86)" /><path
       d="m 74.91266,58.162135 c 0,0 5.369196,-4.058694 6.547354,-3.797242 1.178159,0.264277 1.43961,8.642028 0.390764,9.038661 -1.047542,0.38946 -7.190658,-2.127473 -7.190658,-2.127473 z"
       id="path96"
       style="fill:url(#linearGradient3049);stroke:none;stroke-width:0.217333"
       inkscape:connector-curvature="0"
       clip-path="url(#clipPath92)" /><path
       d="m 70.33086,58.426629 c 0,2.747088 -0.392285,3.928076 0.785874,4.188223 1.178159,0.262973 3.40212,0 4.189515,-0.52312 0.78457,-0.524425 0.129313,-4.057389 -0.132138,-4.715473 -0.261451,-0.652217 -4.843251,-0.127792 -4.843251,1.05037"
       id="path116"
       style="fill:url(#linearGradient3051);stroke:none;stroke-width:0.217333"
       inkscape:connector-curvature="0"
       clip-path="url(#clipPath98)" /><path
       d="m 40.267496,37.298822 c 0,-18.227715 14.775774,-33.0026616 33.000393,-33.0026616 18.224838,0 33.001261,14.7749466 33.001261,33.0026616 0,18.226412 -14.776423,33.001358 -33.001261,33.001358 -18.224619,0 -33.000393,-14.774946 -33.000393,-33.001358 z"
       id="path118"
       style="fill:none;stroke:#ec2027;stroke-width:3.36779;stroke-linecap:butt;stroke-linejoin:miter;stroke-miterlimit:4;stroke-dasharray:none;stroke-opacity:1"
       inkscape:connector-curvature="0"
       clip-path="url(#clipPath8)" /></g></svg>
