<?xml version="1.0" encoding="UTF-8" standalone="no"?>
<svg
   viewBox="0 0 256 256.00001"
   version="1.1"
   id="svg4"
   sodipodi:docname="google.svg"
   width="256"
   height="256"
   inkscape:version="1.3.2 (091e20ef0f, 2023-11-25, custom)"
   xmlns:inkscape="http://www.inkscape.org/namespaces/inkscape"
   xmlns:sodipodi="http://sodipodi.sourceforge.net/DTD/sodipodi-0.dtd"
   xmlns="http://www.w3.org/2000/svg"
   xmlns:svg="http://www.w3.org/2000/svg"
   xmlns:rdf="http://www.w3.org/1999/02/22-rdf-syntax-ns#"
   xmlns:cc="http://creativecommons.org/ns#"
   xmlns:dc="http://purl.org/dc/elements/1.1/">
  <defs
     id="defs4" />
  <sodipodi:namedview
     id="namedview4"
     pagecolor="#ffffff"
     bordercolor="#000000"
     borderopacity="0.25"
     inkscape:showpageshadow="2"
     inkscape:pageopacity="0.0"
     inkscape:pagecheckerboard="0"
     inkscape:deskcolor="#d1d1d1"
     inkscape:zoom="1"
     inkscape:cx="481"
     inkscape:cy="490.5"
     inkscape:window-width="2560"
     inkscape:window-height="1371"
     inkscape:window-x="0"
     inkscape:window-y="0"
     inkscape:window-maximized="1"
     inkscape:current-layer="svg4" />
  <title
     id="title1">google-37</title>
  <g
     id="g4"
     transform="matrix(0.26101142,0,0,0.26101142,2.5552237,-3.68e-7)">
    <path
       d="m 961.2,501.3 c 0,-40.34 -3.25,-69.73 -10.37,-100.27 H 490.4 v 182 H 760.66 C 755.2,628.3 725.8,696.37 660.39,742.1 l -0.9,6.09 145.58,112.79 10.09,1 C 907.81,776.47 961.2,650.6 961.2,501.3"
       fill="#4285f4"
       id="path1" />
    <path
       d="m 490.4,980.8 c 132.41,0 243.55,-43.59 324.76,-118.8 L 660.39,742.14 c -41.41,28.9 -97,49 -170,49 -129.7,0 -239.77,-85.54 -279,-203.79 l -5.76,0.49 -151.38,117.18 -2,5.51 c 80.7,160.2 246.38,270.27 438.15,270.27"
       fill="#34a853"
       id="path2" />
    <path
       d="m 211.45,587.42 a 301.18,301.18 0 0 1 -16.35,-97 c 0,-33.79 6,-66.47 15.81,-97 l -0.29,-6.51 -153.28,-119.03 -5,2.39 a 489.25,489.25 0 0 0 0,440.26 L 211.45,587.42"
       fill="#fbbc05"
       id="path3" />
    <path
       d="m 490.4,189.63 c 92.07,0 154.19,39.77 189.63,73 L 818.41,127.52 C 733.41,48.52 622.81,0 490.41,0 298.58,0 132.95,110.07 52.32,270.3 L 210.87,393.42 C 250.67,275.17 360.74,189.63 490.4,189.63"
       fill="#eb4335"
       id="path4" />
  </g>
  <metadata
     id="metadata4">
    <rdf:RDF>
      <cc:Work
         rdf:about="">
        <dc:title>google-37</dc:title>
      </cc:Work>
    </rdf:RDF>
  </metadata>
</svg>
