<?xml version="1.0" encoding="UTF-8" standalone="no"?>
<svg
   width="256"
   height="256"
   version="1.1"
   id="svg2"
   sodipodi:docname="youtube.svg"
   inkscape:version="1.3.2 (091e20ef0f, 2023-11-25, custom)"
   xmlns:inkscape="http://www.inkscape.org/namespaces/inkscape"
   xmlns:sodipodi="http://sodipodi.sourceforge.net/DTD/sodipodi-0.dtd"
   xmlns="http://www.w3.org/2000/svg"
   xmlns:svg="http://www.w3.org/2000/svg">
  <defs
     id="defs2" />
  <sodipodi:namedview
     id="namedview2"
     pagecolor="#ffffff"
     bordercolor="#000000"
     borderopacity="0.25"
     inkscape:showpageshadow="2"
     inkscape:pageopacity="0.0"
     inkscape:pagecheckerboard="0"
     inkscape:deskcolor="#d1d1d1"
     inkscape:zoom="1"
     inkscape:cx="49"
     inkscape:cy="59.5"
     inkscape:window-width="2560"
     inkscape:window-height="1371"
     inkscape:window-x="0"
     inkscape:window-y="0"
     inkscape:window-maximized="1"
     inkscape:current-layer="svg2" />
  <g
     id="g2"
     transform="matrix(1.6386071,0,0,1.6386071,-2.0249371,37.846153)">
    <path
       d="M 153.99933,17.499925 C 152.17933,10.769954 146.92936,5.4999777 140.19939,3.6999856 131.15943,0.21000096 43.599813,-1.4999915 18.199925,3.7999851 11.469955,5.6199771 6.1999781,10.869954 4.399986,17.599924 c -4.07998197,17.899921 -4.38998061,56.599754 0.1,74.899673 1.819992,6.729966 7.069968,11.999943 13.799939,13.799933 17.899921,4.11999 102.999545,4.69998 121.999465,0 6.72997,-1.81999 11.99994,-7.069967 13.79994,-13.799933 4.34998,-19.499914 4.65998,-55.799757 -0.1,-74.999672 z"
       fill="#ff0000"
       id="path1"
       style="stroke-width:0.999996" />
    <path
       d="M 105,55 64.2,31.6 v 46.8 z"
       fill="#ffffff"
       id="path2" />
  </g>
</svg>
